<svg id="Layer_1" data-name="Layer 1" xmlns="http://www.w3.org/2000/svg" xmlns:xlink="http://www.w3.org/1999/xlink" viewBox="0 0 3505.12 381.56"><defs><style>.cls-1{fill:url(#linear-gradient);}.cls-2{fill:url(#Degradado_sin_nombre_133);}.cls-3{fill:url(#linear-gradient-2);}.cls-4{fill:url(#Degradado_sin_nombre_133-2);}</style><linearGradient id="linear-gradient" x1="2555.18" y1="1820.65" x2="2435.83" y2="2185.38" gradientTransform="matrix(-0.41, 0.91, -0.91, -0.41, 3204.86, -551.71)" gradientUnits="userSpaceOnUse"><stop offset="0" stop-color="#8c5e1c"/><stop offset="0.05" stop-color="#fff8c5"/><stop offset="0.1" stop-color="#fff6c0"/><stop offset="0.16" stop-color="#fff2b2"/><stop offset="0.22" stop-color="#ffea9b"/><stop offset="0.28" stop-color="#fee07a"/><stop offset="0.31" stop-color="#fedb6b"/><stop offset="0.32" stop-color="#f5d165"/><stop offset="0.36" stop-color="#cca04b"/><stop offset="0.39" stop-color="#b2823a"/><stop offset="0.41" stop-color="#a87734"/><stop offset="0.47" stop-color="#a2722f"/><stop offset="0.55" stop-color="#936422"/><stop offset="0.57" stop-color="#8c5e1c"/><stop offset="0.62" stop-color="#ae7a30"/><stop offset="0.69" stop-color="#d69c47"/><stop offset="0.7" stop-color="#c38d3f"/><stop offset="0.75" stop-color="#704a1d"/><stop offset="0.77" stop-color="#4f300f"/><stop offset="0.85" stop-color="#7b5118"/><stop offset="0.9" stop-color="#8c5e1c"/><stop offset="1" stop-color="#d69c47"/></linearGradient><linearGradient id="Degradado_sin_nombre_133" x1="2375.98" y1="1726.12" x2="2493.89" y2="1726.12" gradientTransform="matrix(-0.41, 0.91, -0.91, -0.41, 3204.86, -551.71)" gradientUnits="userSpaceOnUse"><stop offset="0" stop-color="#d69c47"/><stop offset="0.1" stop-color="#8c5e1c"/><stop offset="0.15" stop-color="#7b5118"/><stop offset="0.23" stop-color="#4f300f"/><stop offset="0.25" stop-color="#704a1d"/><stop offset="0.3" stop-color="#c38d3f"/><stop offset="0.31" stop-color="#d69c47"/><stop offset="0.38" stop-color="#ae7a30"/><stop offset="0.43" stop-color="#8c5e1c"/><stop offset="0.45" stop-color="#936422"/><stop offset="0.53" stop-color="#a2722f"/><stop offset="0.59" stop-color="#a87734"/><stop offset="0.61" stop-color="#b2823a"/><stop offset="0.64" stop-color="#cca04b"/><stop offset="0.68" stop-color="#f5d165"/><stop offset="0.69" stop-color="#fedb6b"/><stop offset="0.72" stop-color="#fee07a"/><stop offset="0.78" stop-color="#ffea9b"/><stop offset="0.84" stop-color="#fff2b2"/><stop offset="0.9" stop-color="#fff6c0"/><stop offset="0.95" stop-color="#fff8c5"/><stop offset="1" stop-color="#8c5e1c"/></linearGradient><linearGradient id="linear-gradient-2" x1="1191.96" y1="1807.94" x2="1063.51" y2="2200.48" gradientTransform="translate(1600.59 2315.99) rotate(-100.6)" xlink:href="#linear-gradient"/><linearGradient id="Degradado_sin_nombre_133-2" x1="999.08" y1="1706.19" x2="1125.99" y2="1706.19" gradientTransform="translate(1600.59 2315.99) rotate(-100.6)" xlink:href="#Degradado_sin_nombre_133"/></defs><path class="cls-1" d="M609.45,884.5c-38.23-17.73-72.09-37.24-115.38-26.74-42.52,10.3-82.7,31-123.21,47C330.75,920.72,289.3,934.53,246,937.63a294.25,294.25,0,0,1-69.32-3.45,328.59,328.59,0,0,1-35.74-8.1q-7.08-2-14.08-4.32c-6.78-2.25-37.48-15.1-6.36-1-3.53-1.61-34-13-33.86-15.08,0,.67,15.83,7.56,19,9,38.58,17.53,76.83,35,118.74,43,45.22,8.65,90.93,6.38,135.35-5.48,41.82-11.16,81.42-29,121.38-45.34,40.82-16.68,85.15-37.82,129.3-21.8l-47-21,7,3.24c12.89,6,25.81,11.91,38.84,17.56,8,3.47,10.67,4.48.17-.39Z" transform="translate(-86.62 -667.55)"/><path class="cls-2" d="M694.74,1049.11c-7.62-61-18.82-127.92-77.33-160.78-17.48-9.81-37.51-15.06-54.92-24.83,58.49,32.85,69.71,99.83,77.33,160.78.38,3,24.16,11.26,27.34,12.69s27.22,9.23,27.58,12.14Z" transform="translate(-86.62 -667.55)"/><path class="cls-3" d="M3143.44,1008.76c44.66-7.91,86.56-11.57,118.3-47.51,31.17-35.29,53.89-78.29,79.73-117.44,25.59-38.76,53.66-76.5,90-105.92a316.67,316.67,0,0,1,63.3-39.68,352.89,352.89,0,0,1,36.53-14.88q7.49-2.6,15.09-4.86c7.36-2.19,42.38-9.78,6.19-3.08,4.11-.76,38-9.48,39.18-7.56-.38-.62-18.63,3.08-22.34,3.77-44.84,8.3-89.35,16.5-131.26,35.24-45.24,20.24-84.18,50.42-116.06,88.25-30,35.63-54,75.78-79.17,114.82-25.75,39.87-51.84,85.85-100.67,98.92l54.38-10.41-8.17,1.45c-15.05,2.67-30.11,5.39-45.09,8.44-9.22,1.88-12.18,2.62.09.45Z" transform="translate(-86.62 -667.55)"/><path class="cls-4" d="M2966.73,916.06c44.3,49.1,95.44,101.28,167.33,94.22,21.47-2.11,42.38-9.83,63.76-11.93-71.86,7.06-123-45.14-167.33-94.22-2.19-2.44-28.25,5-31.94,5.64s-29.71,8.63-31.82,6.29Z" transform="translate(-86.62 -667.55)"/></svg>