<svg xmlns="http://www.w3.org/2000/svg" xmlns:xlink="http://www.w3.org/1999/xlink" viewBox="0 0 423.02 420.19"><defs><style>.cls-1{isolation:isolate;}.cls-10,.cls-11,.cls-2,.cls-3,.cls-4,.cls-5,.cls-6,.cls-7,.cls-8,.cls-9{mix-blend-mode:screen;}.cls-11,.cls-2,.cls-3,.cls-4,.cls-5,.cls-6{opacity:0.57;}.cls-2{fill:url(#radial-gradient);}.cls-3{fill:url(#radial-gradient-2);}.cls-4{fill:url(#radial-gradient-3);}.cls-5{fill:url(#radial-gradient-4);}.cls-6{fill:url(#radial-gradient-5);}.cls-10,.cls-7,.cls-8,.cls-9{opacity:0.88;}.cls-7{fill:url(#radial-gradient-6);}.cls-8{fill:url(#radial-gradient-7);}.cls-9{fill:url(#radial-gradient-8);}.cls-10{fill:url(#radial-gradient-9);}.cls-11{fill:url(#radial-gradient-10);}</style><radialGradient id="radial-gradient" cx="3160.86" cy="1893.33" r="11.56" gradientTransform="matrix(0.99, 4.62, -3.96, 0.87, 5071.01, -14737.41)" gradientUnits="userSpaceOnUse"><stop offset="0" stop-color="#fffc77"/><stop offset="0.06" stop-color="#e8e06a"/><stop offset="0.18" stop-color="#b6a64e"/><stop offset="0.31" stop-color="#8c7336"/><stop offset="0.43" stop-color="#694a23"/><stop offset="0.54" stop-color="#4e2a14"/><stop offset="0.66" stop-color="#3b1309"/><stop offset="0.76" stop-color="#2f0502"/><stop offset="0.86" stop-color="#2b0000"/></radialGradient><radialGradient id="radial-gradient-2" cx="3113.91" cy="-46650.83" r="18.6" gradientTransform="matrix(11.85, 3.17, -0.1, 0.35, -40685, 8041.47)" xlink:href="#radial-gradient"/><radialGradient id="radial-gradient-3" cx="1695.3" cy="-13987.77" r="18.65" gradientTransform="matrix(-3.48, 11.77, -0.35, -0.1, 1720.04, -19874.32)" xlink:href="#radial-gradient"/><radialGradient id="radial-gradient-4" cx="3187.42" cy="24112.31" r="8.66" gradientTransform="matrix(-10.43, 6.53, -0.19, -0.31, 38579.86, -11870.4)" xlink:href="#radial-gradient"/><radialGradient id="radial-gradient-5" cx="3594.02" cy="-32089.53" r="8.68" gradientTransform="matrix(6.52, 10.37, -0.31, 0.19, -32642.66, -29503.27)" xlink:href="#radial-gradient"/><radialGradient id="radial-gradient-6" cx="3452.5" cy="-163.89" r="7.63" gradientTransform="matrix(-2.12, 7.66, -2.48, -0.68, 7626.76, -25051.87)" xlink:href="#radial-gradient"/><radialGradient id="radial-gradient-7" cx="6333.62" cy="1131.52" r="7.63" gradientTransform="matrix(-7.82, -1.42, 0.47, -2.53, 49711.97, 13370.19)" xlink:href="#radial-gradient"/><radialGradient id="radial-gradient-8" cx="3888.28" cy="877.27" r="3.41" gradientTransform="matrix(-6.75, 4.23, -1.36, -2.18, 28155.66, -13015.47)" xlink:href="#radial-gradient"/><radialGradient id="radial-gradient-9" cx="2039.8" cy="-6268.2" r="3.41" gradientTransform="matrix(3.88, 6.92, -2.25, 1.26, -21302.86, -4684.24)" xlink:href="#radial-gradient"/><radialGradient id="radial-gradient-10" cx="3563.8" cy="293.44" r="12.21" gradientTransform="matrix(6.8, -4.26, 4.24, 6.77, -24763.6, 14702.28)" gradientUnits="userSpaceOnUse"><stop offset="0" stop-color="#fffb78"/><stop offset="0.05" stop-color="#e8e06b"/><stop offset="0.18" stop-color="#b7a64f"/><stop offset="0.3" stop-color="#8c7337"/><stop offset="0.43" stop-color="#694a23"/><stop offset="0.54" stop-color="#4e2a14"/><stop offset="0.66" stop-color="#3b1309"/><stop offset="0.76" stop-color="#2f0502"/><stop offset="0.86" stop-color="#2b0000"/></radialGradient></defs><g class="cls-1"><g id="Layer_3" data-name="Layer 3"><path class="cls-2" d="M709,1568c-25.31,5.54-51-13.93-57.33-43.44s9-57.93,34.37-63.49,51,14,57.28,43.5S734.33,1562.46,709,1568Z" transform="translate(-485.98 -1304.38)"/><path class="cls-3" d="M909,1570.14c-1,3.76-105-20.79-232.3-54.9s-115.09-36.2-172.26-50.7c-63.9-16.22,48.7,3,175.94,37.08S910.05,1566.35,909,1570.14Z" transform="translate(-485.98 -1304.38)"/><path class="cls-4" d="M636.44,1724.56c-3.74-1.07,23.48-104.42,60.87-230.86s39.18-114.22,55.17-171c17.86-63.5-4.22,48.51-41.59,174.89S640.22,1725.67,636.44,1724.56Z" transform="translate(-485.98 -1304.38)"/><path class="cls-5" d="M607,1571.19c-.92-1.46,38.88-28,88.87-59.34s91.32-55.46,92.23-54-38.87,28-88.9,59.31S607.94,1572.68,607,1571.19Z" transform="translate(-485.98 -1304.38)"/><path class="cls-6" d="M754.14,1604.51c-1.48.93-28-38.63-59.3-88.31s-55.38-90.81-53.9-91.71,28,38.61,59.26,88.34S755.63,1603.54,754.14,1604.51Z" transform="translate(-485.98 -1304.38)"/><path class="cls-7" d="M681.33,1573c-10.49-2.81-11.7-31.31-2.75-63.61s24.67-56.17,35.14-53.27,11.73,31.28,2.76,63.57S691.81,1575.85,681.33,1573Z" transform="translate(-485.98 -1304.38)"/><path class="cls-8" d="M637.86,1503.67c1.93-10.66,30.3-14.45,63.27-8.47s58.1,19.46,56.06,30.13-30.26,14.49-63.24,8.49S635.83,1514.36,637.86,1503.67Z" transform="translate(-485.98 -1304.38)"/><path class="cls-9" d="M674.51,1528.91c-2.54-4.08,5.67-13.88,18.39-21.84s25.11-11,27.64-7-5.64,13.85-18.37,21.83S677.09,1533,674.51,1528.91Z" transform="translate(-485.98 -1304.38)"/><path class="cls-10" d="M710.75,1538.09c-4.23,2.35-13.6-6.26-20.9-19.3s-9.73-25.51-5.53-27.86,13.56,6.24,20.87,19.26S715,1535.69,710.75,1538.09Z" transform="translate(-485.98 -1304.38)"/><path class="cls-11" d="M780.53,1462.5c28.59,45.64,14.61,105.91-31.25,134.63s-106.17,15-134.76-30.62-14.59-105.91,31.24-134.62S751.94,1416.87,780.53,1462.5Z" transform="translate(-485.98 -1304.38)"/></g></g></svg>